<svg width="24" height="24" viewBox="0 0 24 24" fill="none" xmlns="http://www.w3.org/2000/svg">
<path d="M14.89 5.08C14.02 4.82 13.06 4.65 12 4.65C7.21002 4.65 3.33002 8.53 3.33002 13.32C3.33002 18.12 7.21002 22 12 22C16.79 22 20.67 18.12 20.67 13.33C20.67 11.55 20.13 9.89 19.21 8.51" stroke="#80643D" stroke-width="2" stroke-linecap="round" stroke-linejoin="round"/>
<path d="M16.13 5.32L13.24 2" stroke="#80643D" stroke-width="2" stroke-linecap="round" stroke-linejoin="round"/>
<path d="M16.13 5.32L12.76 7.78" stroke="#80643D" stroke-width="2" stroke-linecap="round" stroke-linejoin="round"/>
<path d="M10.2292 12.9375C10.2292 11.9615 11.024 11.1667 12 11.1667C12.9754 11.1667 13.7698 11.9604 13.7709 12.9356C13.7661 13.8879 13.0352 14.6509 12.0987 14.7016C12.0328 14.697 11.9698 14.6973 11.912 14.7006C10.9418 14.6414 10.2292 13.874 10.2292 12.9375Z" fill="#80643D" stroke="#80643D" stroke-width="2"/>
<path d="M9.59408 20.1806L9.59408 20.1806L9.59134 20.1788C9.05844 19.8235 8.89331 19.4393 8.89331 19.1383C8.89331 18.8364 9.05943 18.4469 9.59657 18.0866C10.2194 17.6752 11.0891 17.4404 12.0073 17.4404C12.9268 17.4404 13.793 17.6758 14.4086 18.0862C14.9336 18.4362 15.1027 18.8196 15.1066 19.1307C15.1052 19.4379 14.938 19.8213 14.405 20.1812C13.7866 20.5961 12.9187 20.8333 12 20.8333C11.0808 20.8333 10.2125 20.5958 9.59408 20.1806Z" fill="#80643D" stroke="#80643D" stroke-width="2"/>
</svg>
